<?xml version="1.0" encoding="utf-8"?>
<!-- Generator: Adobe Illustrator 25.0.1, SVG Export Plug-In . SVG Version: 6.00 Build 0)  -->
<svg version="1.1" id="Layer_1"
	xmlns="http://www.w3.org/2000/svg"
	xmlns:xlink="http://www.w3.org/1999/xlink" x="0px" y="0px" viewBox="0 0 1200 1200" style="enable-background:new 0 0 1200 1200;" xml:space="preserve">
	<style type="text/css">
	.st0{fill:url(#SVGID_1_);}
	.st1{fill:url(#SVGID_2_);}
	.st2{fill:url(#SVGID_3_);}
	.st3{fill:url(#SVGID_4_);}
	.st4{fill:url(#SVGID_5_);}
	.st5{fill:#CEAC86;}
	.st6{fill:none;stroke:#CEAC86;stroke-miterlimit:10;}
	</style>
	<g>

		<linearGradient id="SVGID_1_" gradientUnits="userSpaceOnUse" x1="517.5493" y1="250.7917" x2="595.9993" y2="250.7917" gradientTransform="matrix(-0.9994 -0.0356 -0.0356 0.9994 1209.3666 21.2387)">
			<stop offset="0" style="stop-color:#0075AA"/>
			<stop offset="0.1443" style="stop-color:#0476AB"/>
			<stop offset="0.2838" style="stop-color:#0F7CAE"/>
			<stop offset="0.4213" style="stop-color:#2386B4"/>
			<stop offset="0.5577" style="stop-color:#3E94BB"/>
			<stop offset="0.6934" style="stop-color:#62A6C5"/>
			<stop offset="0.8284" style="stop-color:#8DBCD1"/>
			<stop offset="0.9605" style="stop-color:#BFD5DE"/>
			<stop offset="1" style="stop-color:#CFDEE3"/>
		</linearGradient>
		<polygon class="st0" points="605.77,223.67 684.29,223.29 645.32,282.26 	"/>

		<linearGradient id="SVGID_2_" gradientUnits="userSpaceOnUse" x1="566.1728" y1="322.2744" x2="654.7354" y2="322.2744" gradientTransform="matrix(-0.9994 -0.0356 -0.0356 0.9994 1209.3666 21.2387)">
			<stop offset="0" style="stop-color:#0075AA"/>
			<stop offset="0.1443" style="stop-color:#0476AB"/>
			<stop offset="0.2838" style="stop-color:#0F7CAE"/>
			<stop offset="0.4213" style="stop-color:#2386B4"/>
			<stop offset="0.5577" style="stop-color:#3E94BB"/>
			<stop offset="0.6934" style="stop-color:#62A6C5"/>
			<stop offset="0.8284" style="stop-color:#8DBCD1"/>
			<stop offset="0.9605" style="stop-color:#BFD5DE"/>
			<stop offset="1" style="stop-color:#CFDEE3"/>
		</linearGradient>
		<path class="st1" d="M609.68,402.22c-6.9-0.2-13.9-0.29-20.86-0.25c-6.96,0.04-13.96,0.19-20.85,0.46l-23.93-95.85L588.04,240
		l44.64,66.14L609.68,402.22z"/>

		<linearGradient id="SVGID_3_" gradientUnits="userSpaceOnUse" x1="631.5972" y1="255.4133" x2="710.0462" y2="255.4133" gradientTransform="matrix(-0.9994 -0.0356 -0.0356 0.9994 1209.3666 21.2387)">
			<stop offset="0" style="stop-color:#0075AA"/>
			<stop offset="0.1443" style="stop-color:#0476AB"/>
			<stop offset="0.2838" style="stop-color:#0F7CAE"/>
			<stop offset="0.4213" style="stop-color:#2386B4"/>
			<stop offset="0.5577" style="stop-color:#3E94BB"/>
			<stop offset="0.6934" style="stop-color:#62A6C5"/>
			<stop offset="0.8284" style="stop-color:#8DBCD1"/>
			<stop offset="0.9605" style="stop-color:#BFD5DE"/>
			<stop offset="1" style="stop-color:#CFDEE3"/>
		</linearGradient>
		<polygon class="st2" points="491.63,224.23 570.15,223.85 531.18,282.82 	"/>

		<linearGradient id="SVGID_4_" gradientUnits="userSpaceOnUse" x1="453.8416" y1="320.8732" x2="561.608" y2="320.8732" gradientTransform="matrix(-0.9994 -0.0356 -0.0356 0.9994 1209.3666 21.2387)">
			<stop offset="0" style="stop-color:#0075AA"/>
			<stop offset="0.1443" style="stop-color:#0476AB"/>
			<stop offset="0.2838" style="stop-color:#0F7CAE"/>
			<stop offset="0.4213" style="stop-color:#2386B4"/>
			<stop offset="0.5577" style="stop-color:#3E94BB"/>
			<stop offset="0.6934" style="stop-color:#62A6C5"/>
			<stop offset="0.8284" style="stop-color:#8DBCD1"/>
			<stop offset="0.9605" style="stop-color:#BFD5DE"/>
			<stop offset="1" style="stop-color:#CFDEE3"/>
		</linearGradient>
		<path class="st3" d="M669.14,407.85c-9.88-1.88-21.94-3.38-35.36-4.39l22.8-95.01l45.6-69l43.01,63.73L669.14,407.85z"/>

		<linearGradient id="SVGID_5_" gradientUnits="userSpaceOnUse" x1="651.4177" y1="328.7452" x2="767.2678" y2="328.7452" gradientTransform="matrix(-0.9994 -0.0356 -0.0356 0.9994 1209.3666 21.2387)">
			<stop offset="0" style="stop-color:#0075AA"/>
			<stop offset="0.1443" style="stop-color:#0476AB"/>
			<stop offset="0.2838" style="stop-color:#0F7CAE"/>
			<stop offset="0.4213" style="stop-color:#2386B4"/>
			<stop offset="0.5577" style="stop-color:#3E94BB"/>
			<stop offset="0.6934" style="stop-color:#62A6C5"/>
			<stop offset="0.8284" style="stop-color:#8DBCD1"/>
			<stop offset="0.9605" style="stop-color:#BFD5DE"/>
			<stop offset="1" style="stop-color:#CFDEE3"/>
		</linearGradient>
		<path class="st4" d="M431.51,304.71l42.39-64.15l46.27,68.56l23.72,94.78c-13.4,1.14-25.45,2.75-35.31,4.73L431.51,304.71z"/>
		<path class="st5" d="M689.43,464.71c-31.07-11.61-63.73-17.41-97.22-17.24c-33.48,0.16-66.09,6.28-97.04,18.19L495,432.67
		c3.84-4.58,36.23-13.26,97.07-13.56c60.84-0.3,93.31,8.07,97.19,12.61L689.43,464.71z"/>
		<path class="st5" d="M590.01,970.39c-65.93-1.64-127.76-28.49-174.09-75.59c-46.43-47.21-72.25-109.68-72.68-175.9
		c-0.92-139.64,111.93-254,251.57-254.91c2.72-0.02,5.42,0.01,8.13,0.08c41.5,1.03,81.55,12.23,116.98,32.05
		c-26.27-10.78-54.44-16.87-82.97-17.58c-23.13-0.58-46.26,2.3-68.77,8.54C443.4,521.71,370.06,651.42,404.7,776.21
		c27.85,100.3,116.41,169.43,220.37,172.02c23.13,0.58,46.27-2.3,68.77-8.54c15.4-4.27,30.39-10.12,44.54-17.37
		c7.75-3.79,15.28-8.03,22.55-12.68c-44.86,38.22-102.46,60.43-162.78,60.83C595.42,970.48,592.71,970.45,590.01,970.39z"/>

		<ellipse transform="matrix(0.0356 -0.9994 0.9994 0.0356 -126.129 1299.8698)" class="st6" cx="610.45" cy="715.29" rx="243.64" ry="245.92"/>
	</g>
</svg>
